# xmcd CD database file
#
# Track frame offsets:
#	150
#	21496
#	44446
#	64411
#	86840
#	106669
#	129217
#	148355
#	170624
#	191399
#
# Disc length: 2806 seconds
#
# Revision: 0
# Processed by: cddbd v1.5.2PL0 Copyright (c) Steve Scherf et al.
# Submitted via: jetAudio 7
#
DISCID=8f0af40a
DTITLE=Quan Jingjing  - Blue Piano
DYEAR=1900
DGENRE=장르 없음
TTITLE0=女人花
TTITLE1=一生愛你千百回
TTITLE2=解脱
TTITLE3=讓我歡喜讓我憂
TTITLE4=朋友
TTITLE5=但愛已成往事
TTITLE6=天意
TTITLE7=愛上一個不回家的人
TTITLE8=練習
TTITLE9=滚滚紅塵
EXTD=
EXTT0=
EXTT1=
EXTT2=
EXTT3=
EXTT4=
EXTT5=
EXTT6=
EXTT7=
EXTT8=
EXTT9=
PLAYORDER=
